<?xml version="1.0" standalone="no"?>
<!DOCTYPE svg PUBLIC "-//W3C//DTD SVG 20010904//EN"
 "http://www.w3.org/TR/2001/REC-SVG-20010904/DTD/svg10.dtd">
<svg version="1.0" xmlns="http://www.w3.org/2000/svg"
 width="1024.000000pt" height="1024.000000pt" viewBox="0 0 1024.000000 1024.000000"
 preserveAspectRatio="xMidYMid meet">
<metadata>
Created by potrace 1.14, written by Peter Selinger 2001-2017
</metadata>
<g transform="translate(0.000000,1024.000000) scale(0.100000,-0.100000)"
fill="#000000" stroke="none">
<path d="M4625 8776 c-630 -340 -1549 -834 -2070 -1113 -291 -156 -538 -293
-547 -305 -28 -32 -21 -73 27 -167 71 -137 53 -131 180 -62 343 185 1615 867
1905 1020 85 45 156 84 158 85 1 2 -5 19 -13 39 -31 75 -14 152 42 193 37 27
337 184 351 184 17 0 43 -45 37 -63 -4 -8 -85 -56 -180 -107 -114 -59 -176
-98 -180 -111 -9 -26 4 -79 20 -85 7 -3 82 32 166 79 85 46 263 141 397 212
133 70 242 129 242 132 0 15 -97 193 -118 216 -47 50 -66 43 -417 -147z"/>
<path d="M4798 8412 c-213 -114 -389 -210 -392 -213 -3 -3 6 -32 19 -65 38
-91 29 -161 -26 -210 -13 -12 -195 -138 -404 -281 -209 -143 -407 -279 -439
-301 -62 -44 -84 -50 -104 -30 -39 39 -8 64 668 521 113 77 214 147 224 157
11 11 19 32 19 49 0 33 -31 111 -45 111 -9 0 -521 -272 -1328 -705 -294 -158
-604 -324 -687 -368 -84 -45 -153 -86 -153 -92 0 -10 176 -320 238 -422 60
-95 98 -103 206 -44 39 21 125 67 191 101 66 35 291 154 500 265 209 111 765
406 1235 655 470 249 870 463 888 477 62 47 47 107 -113 432 -46 94 -90 171
-97 171 -7 -1 -187 -94 -400 -208z"/>
<path d="M8440 7574 c-372 -36 -723 -72 -1020 -104 -151 -17 -398 -43 -549
-59 l-275 -29 -230 -114 c-126 -62 -237 -121 -247 -132 -12 -12 -57 -27 -126
-42 -59 -13 -115 -27 -123 -30 -36 -13 21 -24 129 -24 86 0 116 -3 125 -14 7
-9 82 -26 211 -46 110 -17 223 -35 250 -40 31 -5 54 -5 60 1 12 12 10 251 -3
332 -7 42 -6 60 2 62 6 2 189 23 406 45 217 22 526 54 685 71 433 45 840 86
842 84 1 0 -5 -21 -14 -45 -34 -98 8 -279 71 -308 33 -15 141 0 174 24 46 34
67 89 66 174 0 101 -33 168 -97 199 -51 25 -37 25 -337 -5z"/>
<path d="M4555 6592 c-312 -164 -1357 -716 -1547 -818 -160 -87 -179 -104
-158 -144 16 -30 48 -25 136 22 43 23 156 82 250 132 94 50 469 249 834 441
474 250 666 356 673 372 8 18 6 27 -8 43 -10 11 -25 20 -34 20 -9 0 -74 -31
-146 -68z"/>
<path d="M3187 6162 c-366 -194 -448 -241 -454 -261 -7 -30 7 -55 34 -59 18
-3 208 95 806 413 120 64 144 90 112 125 -10 11 -25 20 -34 19 -9 0 -217 -107
-464 -237z"/>
<path d="M3760 5806 c-417 -218 -759 -402 -773 -414 -26 -23 -18 -64 13 -75
26 -9 22 -11 610 300 272 144 268 141 256 188 -8 33 -45 33 -106 1z"/>
<path d="M5850 4654 c-2111 -1097 -2004 -1041 -2014 -1068 -12 -31 6 -56 41
-56 14 0 71 24 127 54 114 61 715 373 1001 521 105 54 348 180 540 280 193
100 456 237 585 303 646 334 705 366 708 390 5 31 -15 52 -47 51 -14 0 -438
-214 -941 -475z"/>
<path d="M6316 3996 c-538 -278 -762 -399 -767 -413 -9 -25 14 -63 38 -63 16
0 409 200 1183 602 179 93 335 174 347 180 47 24 36 88 -15 88 -16 0 -344
-164 -786 -394z"/>
<path d="M4915 2805 c-314 -164 -392 -208 -399 -229 -12 -31 6 -56 40 -56 13
0 137 59 276 132 139 72 318 166 398 207 116 61 146 81 148 99 5 31 -15 52
-47 51 -14 0 -201 -92 -416 -204z"/>
</g>
</svg>
